<?xml version="1.0" encoding="UTF-8" standalone="no"?>
<!DOCTYPE svg PUBLIC "-//W3C//DTD SVG 1.1//EN" "http://www.w3.org/Graphics/SVG/1.1/DTD/svg11.dtd">
<svg width="100%" height="100%" viewBox="0 0 2555 1433" version="1.1" xmlns="http://www.w3.org/2000/svg" xmlns:xlink="http://www.w3.org/1999/xlink" xml:space="preserve" xmlns:serif="http://www.serif.com/" style="fill-rule:evenodd;clip-rule:evenodd;stroke-linecap:round;stroke-linejoin:round;stroke-miterlimit:1.5;">
    <g id="Boeuf" transform="matrix(1,0,0,1,-423.316,-496.158)">
        <path d="M547.237,1845.37L542.776,1812.65L572.516,1784.4L572.516,1559.86L581.438,1426.03L618.613,1339.79L627.535,1253.54L523.445,1066.18L510.062,1198.02L533.854,1363.58L527.906,1528.63L510.062,1588.12L459.504,1668.41L432.738,1546.48L426.79,1433.47L440.173,1382.91L423.816,1298.15L469.913,1198.02L471.4,731.604L516.01,618.592L597.795,533.833L706.346,508.554L1048.36,496.658L1271.05,522.449L1579.21,542.755L1857.28,535.32L2061,515.989L2240.93,515.989L2568.07,608.183L2612.68,556.138L2649.85,556.138L2710.82,544.242L2742.05,573.982L2820.86,568.034L2752.46,608.183L2887.77,599.261L2819.37,654.28L2901.16,819.337L2971.05,893.687L2976.99,948.706L2899.67,999.264L2828.29,985.881L2801.53,1011.16L2739.07,1005.21L2651.34,1054.28L2542.79,1040.9L2461.01,1125.66L2392.6,1256.51L2365.84,1345.73L2297.43,1399.27L2229.03,1423.06L2229.03,1506.33L2205.24,1562.84L2202.27,1655.03L2214.16,1718.97L2266.21,1779.94L2321.23,1826.04L2310.82,1849.83L2150.22,1864.7L2117.51,1811.16L2118.99,1784.4L2110.07,1589.6L2059.51,1494.43L2058.03,1439.41L2040.18,1437.93L2028.29,1484.03L1995.57,1536.07L1977.73,1614.88L1988.14,1690.72L2026.8,1742.76L2062.49,1775.48L2046.13,1802.24L1891.48,1791.83L1876.61,1773.99L1895.94,1704.1L1901.89,1573.25L1903.38,1488.49L1885.54,1405.21L1849.85,1378.45L1754.68,1378.45L1662.49,1356.14L1580.7,1387.37L1440.92,1394.81L1402.26,1403.73L1335.35,1440.9L1283.3,1396.29L1162.86,1365.07L1063.23,1307.07L997.798,1318.97L901.143,1320.45L831.254,1433.47L739.06,1525.66L743.521,1659.49L774.748,1726.41L877.351,1799.27L868.429,1821.57L718.242,1823.06L786.644,1897.41L767.313,1925.66L600.769,1928.64L569.542,1888.49L547.237,1845.37Z" style="fill:rgb(64,64,64);stroke:black;stroke-width:1px;"/>
    </g>
    <g id="FauxFilet" transform="matrix(1,0,0,1,-423.316,-496.158)">
        <path d="M1589.88,544.665C1589.88,544.665 1602.98,686.311 1601.38,757.134C1599.75,828.842 1570.13,974.915 1570.13,974.915L1103.34,979.301L1203.27,745.692L1270.46,523.225L1589.88,544.665Z" style="fill:rgb(218,66,66);"/>
    </g>
    <g id="BassesCotes" transform="matrix(1,0,0,1,-423.316,-496.158)">
        <path d="M2239.53,518.231C2239.53,518.231 2268.69,578.495 2280.98,611.208C2292.95,643.047 2301.59,711.142 2301.59,711.142L1791.25,719.469C1801.76,666.735 1820.38,603.849 1845.17,540.72C1919.88,530.853 2034.91,519.734 2060.91,517.704C2090.17,517.435 2184.15,518.887 2239.53,518.231Z" style="fill:rgb(218,66,66);"/>
    </g>
</svg>
