<?xml version="1.0" encoding="UTF-8" standalone="no"?>
<!DOCTYPE svg PUBLIC "-//W3C//DTD SVG 1.1//EN" "http://www.w3.org/Graphics/SVG/1.1/DTD/svg11.dtd">
<svg width="100%" height="100%" viewBox="0 0 1406 952" version="1.1" xmlns="http://www.w3.org/2000/svg" xmlns:xlink="http://www.w3.org/1999/xlink" xml:space="preserve" xmlns:serif="http://www.serif.com/" style="fill-rule:evenodd;clip-rule:evenodd;stroke-linecap:round;stroke-linejoin:round;stroke-miterlimit:1.5;">
    <g transform="matrix(1,0,0,1,-1051.97,-707.074)">
        <path d="M1078.52,1093.68L1052.47,1027.34L1139.55,907.427L1145.26,858.891L1162.39,826.058L1195.22,803.218L1113.86,810.355L1083.88,776.095L1085.31,707.574L1111,758.964L1180.95,757.537L1216.64,746.117L1238.05,758.964L1278.02,766.102L1275.16,736.124L1299.43,733.269L1308,754.682L1315.13,767.53L1350.82,776.095L1367.95,786.087L1390.79,774.667L1419.34,793.225L1415.06,821.775L1457.89,834.623L1514.99,837.478L1580.65,816.065L1654.88,826.058L1664.88,813.21L2144.52,816.065L2281.57,827.485L2321.54,818.92L2408.62,826.058L2447.16,888.869L2442.88,980.23L2438.59,1094.43L2431.46,1172.94L2431.46,1247.18L2457.15,1311.41L2441.45,1375.65L2428.6,1334.26L2400.05,1281.44L2402.91,1228.62L2415.75,1122.49L2365.79,1194.36L2371.5,1274.3L2433.35,1349.57L2410.04,1402.78L2410.04,1488.43L2430.03,1564.09L2428.6,1584.07L2422.89,1641.17L2308.69,1642.6L2350.09,1576.93L2364.36,1485.57L2317.25,1395.64L2264.44,1445.6L2191.63,1571.22L2174.5,1584.07L2150.23,1632.61L2074.58,1625.47L2078.86,1599.77L2138.81,1544.1L2195.91,1424.19L2220.18,1368.52L2181.64,1327.12L2144.52,1254.31L2107.41,1254.31L1944.67,1332.83L1844.75,1324.26L1689.14,1307.13L1614.91,1331.4L1580.65,1382.79L1573.52,1448.46L1557.81,1482.72L1572.09,1552.66L1567.81,1626.9L1526.41,1658.3L1469.31,1648.31L1476.44,1616.9L1432.19,1614.05L1416.49,1594.06L1476.44,1544.1L1477.87,1469.87L1456.46,1367.09L1446.47,1347.1L1430.76,1349.96L1392.22,1302.85L1380.8,1227.19L1317.99,1122.49L1278.02,1122.49L1249.47,1091.58L1186.66,1087.29L1175.24,1073.02L1152.4,1097.29L1123.85,1098.71L1112.43,1104.42L1078.52,1093.68Z" style="fill:rgb(126,50,50);stroke:black;stroke-width:1px;"/>
    </g>
</svg>
